<?xml version="1.0" encoding="iso-8859-1"?>
<!-- Generator: Adobe Illustrator 16.0.0, SVG Export Plug-In . SVG Version: 6.00 Build 0)  -->
<!DOCTYPE svg PUBLIC "-//W3C//DTD SVG 1.1//EN" "http://www.w3.org/Graphics/SVG/1.1/DTD/svg11.dtd">
<svg version="1.1" id="Capa_1" xmlns="http://www.w3.org/2000/svg" xmlns:xlink="http://www.w3.org/1999/xlink" x="0px" y="0px"
	 width="84.61px" height="84.61px" viewBox="0 0 84.61 84.61" style="enable-background:new 0 0 84.61 84.61;" xml:space="preserve"
	>
<g>
	<path d="M73.041,13.532c-3.779,0-7.131,1.829-9.242,4.641l-20.303-2.394c0.168-0.783,0.262-1.595,0.262-2.428
		c0-6.38-5.19-11.569-11.57-11.569c-6.38,0-11.569,5.189-11.569,11.569c0,3.137,1.259,5.981,3.293,8.068l-9.71,15.926
		c-0.847-0.198-1.726-0.314-2.633-0.314C5.19,37.031,0,42.222,0,48.601s5.19,11.568,11.569,11.568c2.802,0,5.373-1.002,7.376-2.664
		l15.367,9.367c-0.557,1.354-0.868,2.834-0.868,4.387c0,6.381,5.189,11.569,11.569,11.569c6.379,0,11.568-5.188,11.568-11.569
		c0-6.379-5.189-11.568-11.568-11.568c-2.873,0-5.498,1.058-7.522,2.797l-15.294-9.323c0.604-1.401,0.941-2.942,0.941-4.563
		c0-3.53-1.595-6.692-4.097-8.816l9.438-15.482c1.166,0.396,2.41,0.62,3.708,0.62c2.221,0,4.291-0.641,6.054-1.729l3.432,13.261
		C38.844,38.565,37,41.929,37,45.724c0,6.379,5.19,11.568,11.569,11.568c6.38,0,11.569-5.189,11.569-11.568
		c0-6.38-5.189-11.569-11.569-11.569c-0.64,0-1.261,0.065-1.871,0.165l-3.396-13.124l18.315,2.159
		c-0.087,0.571-0.146,1.154-0.146,1.75c0,6.379,5.188,11.569,11.568,11.569c6.379,0,11.569-5.19,11.569-11.569
		C84.611,18.721,79.42,13.532,73.041,13.532z M11.569,54.771c-3.401,0-6.169-2.768-6.169-6.17s2.768-6.17,6.169-6.17
		c3.402,0,6.17,2.768,6.17,6.17S14.971,54.771,11.569,54.771z M51.182,71.259c0,3.402-2.768,6.17-6.168,6.17
		c-3.402,0-6.17-2.768-6.17-6.17s2.768-6.17,6.17-6.17C48.414,65.089,51.182,67.856,51.182,71.259z M54.74,45.72
		c0,3.402-2.768,6.17-6.17,6.17c-3.401,0-6.169-2.768-6.169-6.17c0-3.401,2.768-6.169,6.169-6.169
		C51.973,39.55,54.74,42.318,54.74,45.72z M32.188,19.521c-3.402,0-6.17-2.768-6.17-6.17c0-3.402,2.768-6.17,6.17-6.17
		c3.401,0,6.17,2.768,6.17,6.17C38.358,16.753,35.589,19.521,32.188,19.521z M73.041,31.27c-3.402,0-6.17-2.767-6.17-6.169
		c0-3.402,2.768-6.17,6.17-6.17c3.401,0,6.17,2.768,6.17,6.17C79.211,28.503,76.443,31.27,73.041,31.27z"/>
</g>
<g>
</g>
<g>
</g>
<g>
</g>
<g>
</g>
<g>
</g>
<g>
</g>
<g>
</g>
<g>
</g>
<g>
</g>
<g>
</g>
<g>
</g>
<g>
</g>
<g>
</g>
<g>
</g>
<g>
</g>
</svg>
