<?xml version="1.0" encoding="iso-8859-1"?>
<!-- Generator: Adobe Illustrator 16.0.0, SVG Export Plug-In . SVG Version: 6.00 Build 0)  -->
<!DOCTYPE svg PUBLIC "-//W3C//DTD SVG 1.1//EN" "http://www.w3.org/Graphics/SVG/1.1/DTD/svg11.dtd">
<svg version="1.1" id="Capa_1" xmlns="http://www.w3.org/2000/svg" xmlns:xlink="http://www.w3.org/1999/xlink" x="0px" y="0px"
	 width="82.575px" height="82.574px" viewBox="0 0 82.575 82.574" style="enable-background:new 0 0 82.575 82.574;"
	 xml:space="preserve">
<g>
	<path d="M77.442,72.674L50.428,26.655c-0.431-0.735-1.265-1.195-2.174-1.195c-0.908,0-1.742,0.46-2.175,1.197L19.066,72.674
		c-0.306,0.52-0.384,1.12-0.222,1.693c0.173,0.604,0.589,1.104,1.172,1.41c8.588,4.511,17.873,6.797,27.601,6.797h0.003
		c16.476-0.002,28.426-6.546,28.927-6.825c0.563-0.313,0.963-0.813,1.122-1.405C77.823,73.775,77.743,73.186,77.442,72.674z
		 M71.962,71.708c-0.292,1.081-1.002,1.979-1.997,2.534c-0.369,0.207-9.162,5.029-21.189,5.029h-0.002
		c-3.35,0-6.69-0.385-9.926-1.144c-0.686-0.159-1.272-0.592-1.627-1.2c-0.355-0.606-0.446-1.332-0.248-2.006l10.042-40.668
		c0.26-1.005,1.1-1.753,2.125-1.896c1.025-0.145,2.039,0.347,2.564,1.24l19.839,34.989C72.102,69.538,72.251,70.645,71.962,71.708z
		 M25.617,54.895C13.665,51.738,4.829,40.837,4.829,27.909C4.829,12.521,17.349,0,32.737,0c15.39,0,27.908,12.521,27.908,27.909
		c0,2.37-0.299,4.672-0.856,6.87l-1.826-3.111c0.747-5.724-0.554-12.021-4.104-17.605C46.572,2.61,32.56-1.563,22.621,4.76
		c-9.939,6.323-12.099,20.784-4.814,32.234c3.113,4.896,7.46,8.456,12.19,10.439L25.617,54.895z"/>
</g>
<g>
</g>
<g>
</g>
<g>
</g>
<g>
</g>
<g>
</g>
<g>
</g>
<g>
</g>
<g>
</g>
<g>
</g>
<g>
</g>
<g>
</g>
<g>
</g>
<g>
</g>
<g>
</g>
<g>
</g>
</svg>
